<?xml version="1.0" encoding="UTF-8"?>
<svg id="Layer_1" xmlns="http://www.w3.org/2000/svg" version="1.1" viewBox="0 0 694.87 700.09">
  <!-- Generator: Adobe Illustrator 30.2.1, SVG Export Plug-In . SVG Version: 2.1.1 Build 1)  -->
  <defs>
    <style>
      .st0 {
        fill: #e3e3e3;
      }

      .st1 {
        fill: #016ca9;
      }

      .st2 {
        fill: none;
        stroke: #016ca9;
        stroke-linecap: round;
        stroke-linejoin: round;
        stroke-width: 17.44px;
      }

      .st3 {
        fill: #066ba9;
      }

      .st4 {
        fill: #fefefe;
      }
    </style>
  </defs>
  <g id="Generative_Object">
    <g>
      <path class="st0" d="M100.71,344.31l15.09.11c24.43,15.06,51.66,26.66,81.16,26.7l288.61.37c39.06.05,61.27-7.86,93.88-27.24-2.12,1.26,11.82-.7,15.38.64,2.92,1.11,3.45,5.31,4.5,7.38l40.9,81c-11.42,3.78-22.41,4.63-33.31,4.93l-2.14.06,2.14-.06c-.41,3.42,1.56,6.55,3.11,9.52l34.45,65.93-593.23.03,34.26-65.97c-1.04,2.01,6.89-12.87,3.14-9.04-12.46,0-23.65.1-34.24-6.31l42.81-82.08c.62-2.81,1.99-5.66,3.49-5.98Z"/>
      <polygon class="st0" points="653.9 625.57 40.96 625.56 79.06 551.76 615.42 551.73 653.9 625.57"/>
      <g>
        <path class="st3" d="M508.63,349.63c-5.4.76-11.12,1.54-16.44,1.53l-288.69-.34c-78.17-.09-143.73-68.24-136.5-150.94,5.73-65.62,59.76-121.34,127.55-123.74,99.77-3.54,200.3.36,300.92-1.6,3.63-.07,6.24.94,9.38,1.25,79.5,7.87,134.38,82.88,122.9,156.43-9.5,60.88-58.14,108.79-119.11,117.42Z"/>
        <path class="st4" d="M484.83,313.76c-40-2.72-74.2-28.27-88.06-64.9-9.49-25.08-9.28-51.03,1.27-76.06,14.61-34.64,46.73-56.76,83.33-60.35,55.47-5.44,105.01,35.53,110.3,91.02,5.8,60.86-46.35,114.4-106.85,110.3Z"/>
      </g>
    </g>
    <g>
      <polyline class="st2" points="85.51 447.72 51.25 513.69 644.49 513.66 610.04 447.73"/>
      <path class="st1" d="M104.96,354.32s-42.81,82.08-42.81,82.08c0,0-3.22-11.49-3.22-11.49,9.24,5.58,20,4.99,31.12,5.05,0,0,36.7-.03,36.7-.03,148.62-.12,328.69-.26,477.14-.38,11.5-.18,22.85-.96,33.6-4.54,0,0-5.04,12.21-5.04,12.21-3.93-7.62-44.2-87.81-46.96-92.69,3.66-2.97,11.3-9.13,13.81-11.17,4.85,8.92,43.22,85.15,48.71,96,2.42,4.69-.03,10.59-5.04,12.21-6.43,2.13-13.07,3.49-19.6,4.27-6.44.78-12.81,1.05-19.24,1.15-148.47.12-328.73.26-477.36.38,0,0-36.72.03-36.72.03-12.92.19-28.47-.09-40.17-7.57-3.95-2.4-5.3-7.45-3.21-11.49,0,0,42.81-82.08,42.81-82.08,2.11-3.93,6.39-11.95,8.01-14.89,2.46,2.07,10.05,8.33,13.67,11.35,0-.01-2.52,4.72-6.21,11.61h0Z"/>
    </g>
  </g>
</svg>